<svg viewBox="0 0 14 14" fill="none" xmlns="http://www.w3.org/2000/svg">
<path d="M3.60893 1.25774C3.60893 1.04723 3.78116 0.875 3.99166 0.875H9.34999C9.5605 0.875 9.73273 1.04723 9.73273 1.25774C9.73273 1.46824 9.5605 1.64048 9.34999 1.64048H8.96726V6.13286L10.4456 8.71873C10.448 8.72352 10.4504 8.72591 10.4528 8.73069L11.8617 11.1946C11.9741 11.3907 12.0316 11.6108 12.0316 11.8357C12.0316 12.5485 11.4551 13.125 10.7422 13.125L2.60185 13.1226C1.889 13.1226 1.3125 12.5461 1.3125 11.8333C1.3125 11.6084 1.36991 11.3883 1.48234 11.1922L2.89129 8.7283C2.89369 8.72352 2.89608 8.72112 2.89847 8.71634L4.3744 6.13286V1.64048H3.99166C3.78116 1.64048 3.60893 1.46824 3.60893 1.25774ZM3.44866 9.29523L2.14735 11.5725C2.1019 11.6515 2.07798 11.7424 2.07798 11.8333C2.07798 12.1227 2.3124 12.3571 2.60185 12.3571H10.7374C11.0269 12.3571 11.2613 12.1227 11.2613 11.8333C11.2613 11.7424 11.2374 11.6515 11.1919 11.5725L9.893 9.29523H3.44866ZM9.45525 8.52976L8.25202 6.42231C8.21853 6.36489 8.20178 6.29792 8.20178 6.23333V1.64048H5.13988V6.23333C5.13988 6.30031 5.12313 6.36489 5.08964 6.42231L3.88641 8.52976H9.45764H9.45525Z" fill="currentcolor"/>
</svg>
