<svg viewBox="0 0 14 14" fill="none" xmlns="http://www.w3.org/2000/svg">
<path d="M10.8281 0.875C12.0962 0.875 13.125 1.90381 13.125 3.17188V8.53125C13.125 9.79932 12.0962 10.8281 10.8281 10.8281H7.95703C7.91636 10.8281 7.87568 10.8425 7.84219 10.8664L5.00938 12.991C4.89453 13.0771 4.75098 13.125 4.60742 13.125C4.23657 13.125 3.9375 12.8259 3.9375 12.4551V10.8281H3.17188C1.90381 10.8281 0.875 9.79932 0.875 8.53125V3.17188C0.875 1.90381 1.90381 0.875 3.17188 0.875H10.8281ZM3.17188 1.64062C2.32729 1.64062 1.64062 2.32729 1.64062 3.17188V8.53125C1.64062 9.37583 2.32729 10.0625 3.17188 10.0625H4.12891C4.44712 10.0625 4.70312 10.3185 4.70312 10.6367V12.2637L7.38281 10.2539C7.5479 10.1295 7.74888 10.0625 7.95703 10.0625H10.8281C11.6727 10.0625 12.3594 9.37583 12.3594 8.53125V3.17188C12.3594 2.32729 11.6727 1.64062 10.8281 1.64062H3.17188ZM8.98823 3.52119C9.11265 3.35132 9.3519 3.31304 9.52178 3.43745C9.69165 3.56187 9.72993 3.80112 9.60552 3.971L6.54302 8.18193C6.47603 8.27285 6.37554 8.33027 6.26309 8.33745C6.15063 8.34463 6.04058 8.30635 5.96162 8.22739L4.43037 6.69614C4.28203 6.5478 4.28203 6.30376 4.43037 6.15542C4.57871 6.00708 4.82275 6.00708 4.97109 6.15542L6.18413 7.36846L8.98345 3.52119H8.98823Z" fill="currentcolor"/>
</svg>
