<svg viewBox="0 0 14 14" fill="none" xmlns="http://www.w3.org/2000/svg">
<path d="M3.88281 5.425C3.88281 5.52125 3.80283 5.6 3.70508 5.6H2.63867C2.54092 5.6 2.46094 5.52125 2.46094 5.425V4.375C2.46094 4.27875 2.54092 4.2 2.63867 4.2H3.70508C3.80283 4.2 3.88281 4.27875 3.88281 4.375V5.425ZM4.59375 4.375C4.59375 3.89156 4.19607 3.5 3.70508 3.5H2.63867C2.14768 3.5 1.75 3.89156 1.75 4.375V5.425C1.75 5.90844 2.14768 6.3 2.63867 6.3H3.70508C4.19607 6.3 4.59375 5.90844 4.59375 5.425V4.375ZM8.14844 4.375V5.425C8.14844 5.52125 8.06846 5.6 7.9707 5.6H6.9043C6.80654 5.6 6.72656 5.52125 6.72656 5.425V4.375C6.72656 4.27875 6.80654 4.2 6.9043 4.2H7.9707C8.06846 4.2 8.14844 4.27875 8.14844 4.375ZM7.9707 3.5H6.9043C6.41331 3.5 6.01562 3.89156 6.01562 4.375V5.425C6.01562 5.90844 6.41331 6.3 6.9043 6.3H7.9707C8.46169 6.3 8.85938 5.90844 8.85938 5.425V4.375C8.85938 3.89156 8.46169 3.5 7.9707 3.5ZM12.4141 4.375V5.425C12.4141 5.52125 12.3341 5.6 12.2363 5.6H11.1699C11.0722 5.6 10.9922 5.52125 10.9922 5.425V4.375C10.9922 4.27875 11.0722 4.2 11.1699 4.2H12.2363C12.3341 4.2 12.4141 4.27875 12.4141 4.375ZM12.2363 3.5H11.1699C10.6789 3.5 10.2812 3.89156 10.2812 4.375V5.425C10.2812 5.90844 10.6789 6.3 11.1699 6.3H12.2363C12.7273 6.3 13.125 5.90844 13.125 5.425V4.375C13.125 3.89156 12.7273 3.5 12.2363 3.5ZM12.4141 8.575V9.625C12.4141 9.72125 12.3341 9.8 12.2363 9.8H11.1699C11.0722 9.8 10.9922 9.72125 10.9922 9.625V8.575C10.9922 8.47875 11.0722 8.4 11.1699 8.4H12.2363C12.3341 8.4 12.4141 8.47875 12.4141 8.575ZM12.2363 7.7H11.1699C10.6789 7.7 10.2812 8.09156 10.2812 8.575V9.625C10.2812 10.1084 10.6789 10.5 11.1699 10.5H12.2363C12.7273 10.5 13.125 10.1084 13.125 9.625V8.575C13.125 8.09156 12.7273 7.7 12.2363 7.7ZM8.14844 9.625C8.14844 9.72125 8.06846 9.8 7.9707 9.8H6.9043C6.80654 9.8 6.72656 9.72125 6.72656 9.625V8.575C6.72656 8.47875 6.80654 8.4 6.9043 8.4H7.9707C8.06846 8.4 8.14844 8.47875 8.14844 8.575V9.625ZM8.85938 8.575C8.85938 8.09156 8.46169 7.7 7.9707 7.7H6.9043C6.41331 7.7 6.01562 8.09156 6.01562 8.575V9.625C6.01562 10.1084 6.41331 10.5 6.9043 10.5H7.9707C8.46169 10.5 8.85938 10.1084 8.85938 9.625V8.575ZM3.88281 8.575V9.625C3.88281 9.72125 3.80283 9.8 3.70508 9.8H2.63867C2.54092 9.8 2.46094 9.72125 2.46094 9.625V8.575C2.46094 8.47875 2.54092 8.4 2.63867 8.4H3.70508C3.80283 8.4 3.88281 8.47875 3.88281 8.575ZM3.70508 7.7H2.63867C2.14768 7.7 1.75 8.09156 1.75 8.575V9.625C1.75 10.1084 2.14768 10.5 2.63867 10.5H3.70508C4.19607 10.5 4.59375 10.1084 4.59375 9.625V8.575C4.59375 8.09156 4.19607 7.7 3.70508 7.7Z" fill="currentcolor"/>
</svg>
