<svg viewBox="0 0 14 14" fill="none" xmlns="http://www.w3.org/2000/svg">
<path d="M7.23672 1.62654L11.9898 3.82498L7.23672 6.02107C7.08672 6.09138 6.91328 6.09138 6.76562 6.02107L2.01016 3.82498L6.76328 1.62654C6.91328 1.55623 7.08437 1.55623 7.23438 1.62654H7.23672ZM7.55078 0.946851C7.20156 0.785132 6.79844 0.785132 6.44922 0.946851L1.32578 3.31404C1.12656 3.40544 1 3.60466 1 3.82498C1 4.04529 1.12656 4.24451 1.32578 4.33591L6.44922 6.7031C6.79844 6.86482 7.20156 6.86482 7.55078 6.7031L12.6742 4.33591C12.8734 4.24451 13 4.04529 13 3.82498C13 3.60466 12.8734 3.40544 12.6742 3.31404L7.55078 0.946851ZM2.12734 5.94373L1.32578 6.31404C1.12656 6.40544 1 6.60466 1 6.82498C1 7.04529 1.12656 7.24451 1.32578 7.33591L6.44922 9.7031C6.79844 9.86482 7.20156 9.86482 7.55078 9.7031L12.6742 7.33591C12.8734 7.24451 13 7.04529 13 6.82498C13 6.60466 12.8734 6.40544 12.6742 6.31404L11.875 5.94373L10.982 6.35623L11.9922 6.82263L7.23672 9.02107C7.08672 9.09138 6.91328 9.09138 6.76562 9.02107L2.01016 6.82498L3.02031 6.35623L2.12734 5.94373ZM1.32578 9.31404C1.12656 9.40545 1 9.60466 1 9.82498C1 10.0453 1.12656 10.2445 1.32578 10.3359L6.44922 12.7031C6.79844 12.8648 7.20156 12.8648 7.55078 12.7031L12.6742 10.3359C12.8734 10.2445 13 10.0453 13 9.82498C13 9.60466 12.8734 9.40545 12.6742 9.31404L11.875 8.94373L10.982 9.35623L11.9922 9.82263L7.23672 12.0211C7.08672 12.0914 6.91328 12.0914 6.76562 12.0211L2.01016 9.82498L3.02031 9.35623L2.12734 8.94373L1.32578 9.31404Z" fill="currentcolor"/>
</svg>
