<svg viewBox="0 0 14 14" fill="none" xmlns="http://www.w3.org/2000/svg">
<path d="M3.32678 1.68511C3.18147 1.53979 2.94241 1.53979 2.79709 1.68511L0.547095 3.93511C0.401782 4.08042 0.401782 4.31948 0.547095 4.4648C0.692407 4.61011 0.93147 4.61011 1.07678 4.4648L2.68694 2.85464V11.7C2.68694 11.9062 2.85569 12.075 3.06194 12.075C3.26819 12.075 3.43694 11.9062 3.43694 11.7V2.85464L5.04709 4.4648C5.19241 4.61011 5.43147 4.61011 5.57678 4.4648C5.72209 4.31948 5.72209 4.08042 5.57678 3.93511L3.32678 1.68511ZM7.18694 12.075H8.68694C8.89319 12.075 9.06194 11.9062 9.06194 11.7C9.06194 11.4937 8.89319 11.325 8.68694 11.325H7.18694C6.98069 11.325 6.81194 11.4937 6.81194 11.7C6.81194 11.9062 6.98069 12.075 7.18694 12.075ZM7.18694 8.88745H10.1869C10.3932 8.88745 10.5619 8.7187 10.5619 8.51245C10.5619 8.3062 10.3932 8.13745 10.1869 8.13745H7.18694C6.98069 8.13745 6.81194 8.3062 6.81194 8.51245C6.81194 8.7187 6.98069 8.88745 7.18694 8.88745ZM7.18694 5.51245H11.6869C11.8932 5.51245 12.0619 5.3437 12.0619 5.13745C12.0619 4.9312 11.8932 4.76245 11.6869 4.76245H7.18694C6.98069 4.76245 6.81194 4.9312 6.81194 5.13745C6.81194 5.3437 6.98069 5.51245 7.18694 5.51245ZM7.18694 2.32495H13.1869C13.3932 2.32495 13.5619 2.1562 13.5619 1.94995C13.5619 1.7437 13.3932 1.57495 13.1869 1.57495H7.18694C6.98069 1.57495 6.81194 1.7437 6.81194 1.94995C6.81194 2.1562 6.98069 2.32495 7.18694 2.32495Z" fill="currentcolor"/>
</svg>
